<svg xmlns="http://www.w3.org/2000/svg" width="14" height="14" viewBox="0 0 14 14" fill="none">
  <path class="path-1" d="M14 7C14 10.866 10.866 14 7 14C3.13401 14 0 10.866 0 7C0 3.13401 3.13401 0 7 0C10.866 0 14 3.13401 14 7ZM1.75 7C1.75 9.89949 4.1005 12.25 7 12.25C9.89949 12.25 12.25 9.89949 12.25 7C12.25 4.1005 9.89949 1.75 7 1.75C4.1005 1.75 1.75 4.1005 1.75 7Z"/>
  <path class="path-2" d="M14 7C14 8.10467 13.7386 9.19366 13.2371 10.1779C12.7356 11.1622 12.0082 12.0138 11.1145 12.6631C10.2208 13.3124 9.18615 13.741 8.09507 13.9138C7.004 14.0866 5.88752 13.9988 4.83691 13.6574L5.37769 11.993C6.16565 12.2491 7.00301 12.315 7.82131 12.1854C8.63962 12.0558 9.41563 11.7343 10.0859 11.2473C10.7562 10.7604 11.3017 10.1217 11.6778 9.38345C12.054 8.64525 12.25 7.8285 12.25 7H14Z"/>
  <path class="path-3" d="M-3.38438e-05 7C-3.38438e-05 5.89533 0.26141 4.80634 0.762921 3.82207C1.26443 2.8378 1.99177 1.98619 2.88547 1.33688C3.77917 0.68757 4.81385 0.25899 5.90493 0.0861809C6.996 -0.086628 8.11248 0.00124142 9.16309 0.342604L8.62231 2.00695C7.83435 1.75093 6.99699 1.68503 6.17869 1.81464C5.36038 1.94424 4.58437 2.26568 3.91409 2.75266C3.24382 3.23964 2.69832 3.87835 2.32218 4.61655C1.94605 5.35475 1.74997 6.1715 1.74997 7H-3.38438e-05Z"/>
</svg>