<svg width="22" height="20" viewBox="0 0 22 20" fill="none" xmlns="http://www.w3.org/2000/svg">
<path fill-rule="evenodd" clip-rule="evenodd" d="M16.9792 13.6848L11.1995 10.3471L16.9712 7.02308L19.7413 8.65996L19.8651 12.0229L16.9792 13.6848Z" fill="#29B5E8"/>
<path fill-rule="evenodd" clip-rule="evenodd" d="M10.8127 2.9769L10.8047 9.63866L5.03299 6.31468L5.06908 3.10329L7.92684 1.31491L10.8127 2.9769Z" fill="#29B5E8"/>
<path fill-rule="evenodd" clip-rule="evenodd" d="M4.68726 14.0158L10.475 10.6918V17.3398L7.6688 18.9143L4.68726 17.3398V14.0158Z" fill="#29B5E8"/>
<path fill-rule="evenodd" clip-rule="evenodd" d="M11.1853 17.023L11.1933 10.3612L16.965 13.6852L16.9289 16.8966L14.0712 18.685L11.1853 17.023Z" fill="#11567F"/>
<path fill-rule="evenodd" clip-rule="evenodd" d="M5.02822 6.33804L10.8079 9.67582L5.03621 12.9998L2.26614 11.3629L2.14236 8.00004L5.02822 6.33804Z" fill="#11567F"/>
<path fill-rule="evenodd" clip-rule="evenodd" d="M16.6166 6.3633L10.8289 9.68728L10.8289 3.03931L13.6351 1.46479L16.6166 3.03931L16.6166 6.3633Z" fill="#11567F"/>
</svg>
